<svg id="Camada_1" data-name="Camada 1" xmlns="http://www.w3.org/2000/svg" viewBox="0 0 256 200.19"><defs><style>.cls-1,.cls-8{fill:#f18339;}.cls-2,.cls-4,.cls-6{fill:#263367;}.cls-3{fill:#fff;}.cls-4{font-size:31.12px;}.cls-4,.cls-6,.cls-8{font-family:DunkinSans, Dunkin Sans;}.cls-5{letter-spacing:-0.06em;}.cls-6{font-size:24px;}.cls-7{letter-spacing:-0.06em;}.cls-8{font-size:16px;}</style></defs><title>running-runpandas</title><path class="cls-1" d="M168.64,61.18c-29.2-4.91-53.21,6.81-75.9,22.72A59.33,59.33,0,0,0,80.05,95.6c-1.6,2-2.65,1.93-4.41.21-1.48-9.24,1.21-12.31,3-15.66C98.14,60.94,119,51.41,146.06,48c4.16-.53,8.6.31,12.46-2C163.05,50.31,166,55.66,168.64,61.18Z"/><path class="cls-2" d="M68.64,50.31c0-11.72,6.1-19.6,15.5-21.74,8.66-2,19.67,3.35,23.63,11.5,2,4.2,1.42,8-2.55,10.62-3.77,2.53-18.35,11.29-22.1,13.4-4.09,2.3-7.94,1.34-10.67-2.44A19.77,19.77,0,0,1,68.64,50.31Z"/><path class="cls-2" d="M168.64,61.18c-2.61-5.52-5.47-10.87-9.9-15.2-4.07-5.25-9.84-8.54-15.13-12.6a19.38,19.38,0,0,1,23.84,3.36c5.9,6.28,7.17,17.4,2.69,24C169.92,61.07,169.16,61,168.64,61.18Z"/><path class="cls-2" d="M178.67,107.48A27.57,27.57,0,0,1,173,118c-1.53,1.68-3.46,1-5-.27-2.28-1.94-4.53-3.94-6.67-6-2.56-2.52-2.12-5.12,1.24-6.2a43.34,43.34,0,0,1,11.76-2.07C176.75,103.35,178.44,104.41,178.67,107.48Z"/><path class="cls-3" d="M148.56,92.17A2.57,2.57,0,0,1,146,89.31c.05-1.64.91-2.79,2.66-2.73s3.08,1,2.85,3.07C151.32,91.34,150.21,92.1,148.56,92.17Z"/><path class="cls-3" d="M169.57,87.74A2.57,2.57,0,0,1,167,84.89c.05-1.64.91-2.8,2.66-2.74s3.08,1,2.85,3.08C172.33,86.92,171.23,87.68,169.57,87.74Z"/><path class="cls-2" d="M131.84,98.79c.64-4.69.88-9.47,3.64-13.62A16.06,16.06,0,0,1,152.05,78c8.19,1.63,10.6,8.18,5.22,14.56a54.28,54.28,0,0,1-15.35,12.31C135.42,108.53,131.86,106.27,131.84,98.79Zm15.55-7.51a2.7,2.7,0,0,0,3-2.52c.23-2.06-1-3-2.85-3.07s-2.61,1.09-2.66,2.73A2.58,2.58,0,0,0,147.39,91.28Z"/><path class="cls-2" d="M172.18,75.67c3.95,0,3.51,7,6.19,12.81,4.14,4.27,2.41,8.44,0,7.81-5.12-1.34-3.91-.7-10.42-7.8-3.24-3.53-3.24-9,.69-11.78A4.49,4.49,0,0,1,172.18,75.67Zm0,7c-1.22-.11-1.75.81-1.76,1.87a1.79,1.79,0,0,0,1.85,2c1.37,0,2.22-.72,2.11-2.1A1.84,1.84,0,0,0,172.2,82.71Z"/><text class="cls-4" transform="translate(30.93 186.46)"><tspan class="cls-5">r</tspan><tspan x="18.75" y="0">unpandas</tspan></text><text class="cls-6" transform="translate(52.36 152.06)"><tspan class="cls-7">r</tspan><tspan x="14.46" y="0">unning</tspan></text><text class="cls-8" transform="translate(169.13 158.67)">with</text></svg>